<svg width="15" height="12" viewBox="0 0 15 12" fill="none" xmlns="http://www.w3.org/2000/svg">
<path d="M13.6816 0.726562H1.31836C0.589951 0.726562 0 1.32018 0 2.04492V9.95508C0 10.6841 0.594287 11.2734 1.31836 11.2734H13.6816C14.404 11.2734 15 10.6866 15 9.95508V2.04492C15 1.32146 14.4124 0.726562 13.6816 0.726562ZM13.497 1.60547C13.2277 1.87339 8.59228 6.48437 8.43223 6.64356C8.1832 6.89259 7.85215 7.0297 7.5 7.0297C7.14785 7.0297 6.8168 6.89256 6.56695 6.64274C6.45932 6.53566 1.87509 1.97561 1.50299 1.60547H13.497ZM0.878906 9.77619V2.22437L4.67689 6.00234L0.878906 9.77619ZM1.50354 10.3945L5.30004 6.62218L5.9463 7.26504C6.36132 7.68006 6.9131 7.9086 7.5 7.9086C8.0869 7.9086 8.63868 7.68006 9.05288 7.26586L9.69996 6.62218L13.4965 10.3945H1.50354ZM14.1211 9.77619L10.3231 6.00234L14.1211 2.22437V9.77619Z" fill="#00C194"/>
</svg>
