<svg width="16" height="15" viewBox="0 0 16 15" fill="none" xmlns="http://www.w3.org/2000/svg">
<path d="M15.6642 15L15.668 14.9994V9.49817C15.668 6.80692 15.0886 4.73379 11.9424 4.73379C10.4298 4.73379 9.41485 5.56379 9.00047 6.35067H8.95672V4.98504H5.97359V14.9994H9.07985V10.0407C9.07985 8.73505 9.32735 7.47254 10.9442 7.47254C12.5374 7.47254 12.5611 8.96254 12.5611 10.1244V15H15.6642Z" fill="#B9C0BF"/>
<path d="M0.915463 4.9856H4.02546V15H0.915463V4.9856Z" fill="#B9C0BF"/>
<path d="M2.46922 0C1.47484 0 0.667969 0.806875 0.667969 1.80125C0.667969 2.79562 1.47484 3.61937 2.46922 3.61937C3.46359 3.61937 4.27047 2.79562 4.27047 1.80125C4.26984 0.806875 3.46297 0 2.46922 0Z" fill="#B9C0BF"/>
</svg>
