<svg width="16" height="13" viewBox="0 0 16 13" fill="none" xmlns="http://www.w3.org/2000/svg">
<path d="M15.668 1.84906C15.1102 2.09375 14.5158 2.25594 13.8961 2.33469C14.5336 1.95406 15.0202 1.35594 15.2489 0.635C14.6545 0.989375 13.9983 1.23969 13.2989 1.37938C12.7345 0.778438 11.9302 0.40625 11.0527 0.40625C9.35016 0.40625 7.97953 1.78813 7.97953 3.48219C7.97953 3.72594 8.00016 3.96031 8.05078 4.18344C5.49422 4.05875 3.23203 2.83344 1.71234 0.966875C1.44703 1.42719 1.29141 1.95406 1.29141 2.52125C1.29141 3.58625 1.83984 4.53031 2.65734 5.07687C2.16328 5.0675 1.67859 4.92406 1.26797 4.69812C1.26797 4.7075 1.26797 4.71969 1.26797 4.73187C1.26797 6.22625 2.33391 7.4675 3.73172 7.75344C3.48141 7.82188 3.20859 7.85469 2.92547 7.85469C2.72859 7.85469 2.52984 7.84344 2.34328 7.80219C2.74172 9.02 3.87234 9.91531 5.21672 9.94438C4.17047 10.7628 2.84203 11.2559 1.40391 11.2559C1.15172 11.2559 0.909844 11.2447 0.667969 11.2137C2.03016 12.0922 3.64453 12.5938 5.38547 12.5938C11.0442 12.5938 14.138 7.90625 14.138 3.84312C14.138 3.70719 14.1333 3.57594 14.1267 3.44563C14.737 3.0125 15.2498 2.47156 15.668 1.84906Z" fill="#B9C0BF"/>
</svg>
