<svg width="16" height="15" viewBox="0 0 16 15" fill="none" xmlns="http://www.w3.org/2000/svg">
<path d="M11.6076 0H4.72832C2.48941 0 0.667969 1.82144 0.667969 4.06036V10.9397C0.667969 13.1785 2.48941 15 4.72832 15H11.6077C13.8465 15 15.6679 13.1785 15.6679 10.9397V4.06036C15.6679 1.82144 13.8465 0 11.6076 0ZM8.16795 11.6014C5.90638 11.6014 4.06651 9.76156 4.06651 7.49999C4.06651 5.23841 5.90638 3.39855 8.16795 3.39855C10.4295 3.39855 12.2694 5.23841 12.2694 7.49999C12.2694 9.76156 10.4295 11.6014 8.16795 11.6014ZM12.3675 4.3658C11.6991 4.3658 11.1555 3.8222 11.1555 3.15387C11.1555 2.48554 11.6991 1.94183 12.3675 1.94183C13.0358 1.94183 13.5795 2.48554 13.5795 3.15387C13.5795 3.8222 13.0358 4.3658 12.3675 4.3658Z" fill="#B9C0BF"/>
<path d="M8.16795 4.27791C6.39138 4.27791 4.94588 5.72329 4.94588 7.49999C4.94588 9.27656 6.39138 10.7221 8.16795 10.7221C9.94465 10.7221 11.39 9.27656 11.39 7.49999C11.39 5.72329 9.94465 4.27791 8.16795 4.27791Z" fill="#B9C0BF"/>
<path d="M12.3675 2.82131C12.1841 2.82131 12.0349 2.97054 12.0349 3.15387C12.0349 3.33721 12.1841 3.48644 12.3675 3.48644C12.5509 3.48644 12.7001 3.33732 12.7001 3.15387C12.7001 2.97042 12.5509 2.82131 12.3675 2.82131Z" fill="#B9C0BF"/>
</svg>
